<svg clip-rule="evenodd" fill-rule="evenodd" stroke-linecap="round" stroke-linejoin="round" stroke-miterlimit="1.5" viewBox="0 0 256 256" xmlns="http://www.w3.org/2000/svg">
  <path d="m93.055 10.904c-8.232 2.457-16.182 5.775-23.719 9.899l2.309 35.465c-5.849 4.595-11.114 9.888-15.677 15.761l-35.478-2.118c-4.083 7.558-7.359 15.525-9.771 23.771l26.71 23.445c-.887 7.385-.867 14.85.059 22.23l-26.584 23.588c2.457 8.232 5.775 16.182 9.899 23.719l35.465-2.309c4.595 5.849 9.888 11.114 15.761 15.677l-2.118 35.478c7.558 4.083 15.525 7.359 23.771 9.771l23.445-26.71c7.385.887 14.85.867 22.23-.059l23.588 26.584c8.232-2.457 16.182-5.775 23.719-9.899l-2.309-35.465c5.849-4.595 11.114-9.888 15.677-15.761l35.478 2.118c4.083-7.558 7.359-15.525 9.771-23.771l-26.71-23.445c.887-7.385.867-14.85-.059-22.23l26.584-23.588c-2.457-8.232-5.775-16.182-9.899-23.719l-35.465 2.309c-4.595-5.849-9.888-11.114-15.761-15.677l2.118-35.478c-7.558-4.083-15.525-7.359-23.771-9.771l-23.445 26.71c-7.385-.887-14.85-.867-22.23.059l-23.588-26.584zm9.49 56.104c33.662-14.048 72.398 1.875 86.447 35.537 14.048 33.662-1.875 72.398-35.537 86.447-33.662 14.048-72.398-1.875-86.447-35.537-14.048-33.662 1.875-72.398 35.537-86.447z" fill="#5fbaa7" />
  <g fill="none" stroke="#000" stroke-width="14">
    <path d="m150.05 100.501s-4.836-4.47-12.858-7.207c-10.315-3.52-30.43.955-30.883 15.644-.832 27.05 45.961 9.35 44.801 37.698-.616 15.028-18.037 19.105-31.736 15.475-11.253-2.983-14.867-8.143-14.867-8.143" />
    <path d="m129.682 82.784-.104 92.798" />
  </g>
</svg>